HIERARCHY
ROOT hip
{
	OFFSET 0.000000 0.000000 0.000000 
	CHANNELS 6 Xposition Yposition Zposition Xrotation Zrotation Yrotation
	JOINT abdomen
	{
		OFFSET 0.000000 3.402643 0.000000 
		CHANNELS 3 Xrotation Zrotation Yrotation
		JOINT chest
		{
			OFFSET 0.000000 8.438565 -0.680529 
			CHANNELS 3 Xrotation Zrotation Yrotation
			JOINT neck
			{
				OFFSET 0.000000 10.207942 -0.272212 
				CHANNELS 3 Xrotation Zrotation Yrotation
				JOINT head
				{
					OFFSET 0.000000 3.130431 0.000000 
					CHANNELS 3 Xrotation Zrotation Yrotation
					End Site
					{
						OFFSET 0.000000 3.130435 0.000000 
					}
				}
			}
			JOINT lCollar
			{
				OFFSET 3.470700 6.669187 -0.816635 
				CHANNELS 3 Yrotation Zrotation Xrotation
				JOINT lShldr
				{
					OFFSET 3.198488 0.000000 0.000000 
					CHANNELS 3 Zrotation Yrotation Xrotation
					JOINT lForeArm
					{
						OFFSET 10.139888 0.000000 0.000000 
						CHANNELS 3 Yrotation Zrotation Xrotation
						JOINT lHand
						{
							OFFSET 8.370511 0.000000 0.000000 
							CHANNELS 3 Zrotation Yrotation Xrotation
							End Site
							{
								OFFSET 4.083176 0.000000 0.000000 
							}
						}
					}
				}
			}
			JOINT rCollar
			{
				OFFSET -3.470700 6.669187 -0.816635 
				CHANNELS 3 Yrotation Zrotation Xrotation
				JOINT rShldr
				{
					OFFSET -3.198488 0.000000 0.000000 
					CHANNELS 3 Zrotation Yrotation Xrotation
					JOINT rForeArm
					{
						OFFSET -10.139888 0.000000 0.000000 
						CHANNELS 3 Yrotation Zrotation Xrotation
						JOINT rHand
						{
							OFFSET -8.370511 0.000000 0.000000 
							CHANNELS 3 Zrotation Yrotation Xrotation
							End Site
							{
								OFFSET -4.083176 0.000000 0.000000 
							}
						}
					}
				}
			}
		}
	}
	JOINT lThigh
	{
		OFFSET 5.308129 -1.633274 1.361059 
		CHANNELS 3 Xrotation Zrotation Yrotation
		JOINT lShin
		{
			OFFSET -2.041588 -20.007561 0.000000 
			CHANNELS 3 Xrotation Zrotation Yrotation
			JOINT lFoot
			{
				OFFSET 0.000000 -19.190928 -1.224953 
				CHANNELS 3 Xrotation Yrotation Zrotation
				End Site
				{
					OFFSET 0.000000 -2.449906 4.627600 
				}
			}
		}
	}
	JOINT rThigh
	{
		OFFSET -5.308129 -1.633274 1.361059 
		CHANNELS 3 Xrotation Zrotation Yrotation
		JOINT rShin
		{
			OFFSET 2.041588 -20.007561 0.000000 
			CHANNELS 3 Xrotation Zrotation Yrotation
			JOINT rFoot
			{
				OFFSET 0.000000 -19.190928 -1.224953 
				CHANNELS 3 Xrotation Yrotation Zrotation
				End Site
				{
					OFFSET 0.000000 -2.449906 4.627600 
				}
			}
		}
	}
}
MOTION
Frames: 20
Frame Time: 0.016667
0.597659 46.751160 0.633268 -1.331714 -4.927866 -6.636274 27.956861 -0.301959 4.101608 -21.784807 -1.441486 4.171056 -5.559864 -5.414055 -17.139660 2.115481 -0.871191 -18.371393 -0.966710 0.507977 -0.009850 -78.136841 14.370230 -28.034756 -10.314996 1.217656 12.982121 -12.643750 14.470459 -3.206620 7.050973 1.131614 -0.009883 72.842468 16.044756 -6.310713 34.829277 -2.755999 31.926702 17.489674 -4.531108 -1.446418 -25.792181 6.150771 -5.738346 27.414997 -1.246599 -2.419075 -5.351741 4.466800 -11.672237 4.428321 4.857347 -0.612297 28.493076 1.209852 2.407402 -30.617624 -2.579147 10.936914 
0.531928 46.524315 1.659365 -1.727622 -5.207921 -6.757342 28.213144 -0.126596 4.296865 -21.793867 -1.392576 4.288214 -5.348443 -5.358457 -16.794924 1.985343 -1.151738 -17.992178 -1.074172 0.273621 -0.009810 -78.230804 14.471113 -31.781584 -9.452842 1.517254 16.191002 -12.448895 14.595737 -3.182235 7.353698 1.082734 -0.009868 72.408417 16.938139 -6.041520 36.527489 -2.690418 30.890537 16.769972 -3.438479 -1.046057 -26.466722 6.092929 -10.034893 23.472908 -1.383484 -2.176273 -4.879425 6.946727 -11.457223 5.828563 5.018200 -0.306923 29.343508 1.170899 2.460949 -31.360264 -2.812202 10.777643 
0.474018 46.328751 2.761694 -1.964805 -5.261813 -6.237501 28.080976 -0.068179 4.160153 -21.429972 -1.139609 4.131594 -5.505272 -5.374647 -16.550123 1.678176 -1.246330 -17.748510 -1.259719 0.273652 -0.009810 -78.570679 14.092623 -35.329060 -8.730357 1.815689 20.147766 -12.305695 14.697160 -3.177137 7.548959 0.770202 -0.009811 72.571487 17.383081 -6.375124 38.722202 -2.515682 29.097157 16.926689 -4.379624 -1.342022 -26.648596 6.288886 -10.416018 20.730633 -1.484897 -1.993161 -6.994382 6.208606 -11.308775 7.244290 4.969359 -0.600564 29.900501 1.151167 2.494187 -31.494471 -2.926259 10.718701 
0.416112 46.133209 3.863948 -2.192245 -5.315279 -5.728276 27.949217 0.000000 4.013672 -21.066107 -0.867050 3.975040 -5.661292 -5.390495 -16.315042 1.367272 -1.331839 -17.505104 -1.445264 0.283449 -0.009811 -78.887825 13.697823 -38.872944 -8.021334 2.166734 24.103710 -12.159915 14.800697 -3.159848 7.744216 0.447903 -0.009753 72.723602 17.835871 -6.724116 40.916744 -2.417342 27.295660 17.088772 -5.328593 -1.645606 -26.827618 6.483670 -10.769386 17.994482 -1.569574 -1.823698 -9.108579 5.468798 -11.220665 8.669724 4.930243 -0.883363 30.447628 1.121808 2.534083 -31.639370 -3.020906 10.639091 
0.409344 45.986591 5.036439 -2.470463 -5.172356 -5.403784 27.743315 -0.155891 3.886731 -20.424427 -0.633269 3.935738 -6.209773 -5.245207 -16.134630 1.215283 -1.426723 -17.281052 -1.455028 0.293217 -0.009812 -79.152184 12.884498 -41.117321 -7.695556 2.378875 26.946560 -12.043050 14.701535 -3.108239 7.724643 0.194000 -0.009710 73.078293 17.915140 -6.899126 43.138596 -2.143088 24.618219 16.965799 -6.687891 -2.045768 -26.543892 6.200701 -10.802530 17.218685 -1.602026 -1.758138 -9.967600 4.874198 -11.247160 10.133787 4.646927 -0.973799 30.984959 1.102254 2.566051 -30.966629 -3.080980 10.635045 
0.402578 45.839981 6.208879 -2.747894 -5.029189 -5.068720 27.538742 -0.302083 3.759816 -19.783070 -0.399465 3.896525 -6.759145 -5.089961 -15.963173 1.062299 -1.521893 -17.047272 -1.464792 0.302984 -0.009814 -79.386711 12.056869 -43.365452 -7.380194 2.610871 29.795614 -11.925799 14.592677 -3.055073 7.714834 -0.059905 -0.009677 73.423035 17.995995 -7.079439 45.374260 -1.984657 21.934292 16.852421 -8.058537 -2.442074 -26.254005 5.927226 -10.809576 16.412741 -1.628128 -1.709015 -10.789135 4.275869 -11.317554 11.607801 4.363668 -1.080136 31.522169 1.072875 2.605030 -30.265333 -3.140860 10.619841 
0.434339 45.759670 7.490338 -3.081302 -4.971345 -4.999767 27.279139 -0.389789 3.750045 -19.616060 -0.097427 3.925776 -6.682520 -4.972232 -15.783836 1.054533 -1.514050 -16.861534 -1.455027 0.302982 -0.009814 -79.738068 11.799737 -43.093075 -7.488486 2.603142 29.702293 -11.675935 14.643811 -2.998717 7.968689 -0.362682 -0.009671 73.965515 16.844770 -7.137702 46.954357 -1.806382 20.190897 16.017220 -7.366449 -2.129091 -25.456133 5.585568 -10.577541 17.640963 -1.591839 -1.778971 -10.314147 3.307669 -11.524974 12.813396 4.039800 -0.963507 32.547764 1.033764 2.665743 -27.783548 -3.286055 10.658922 
0.466103 45.679371 8.771816 -3.424334 -4.913484 -4.930817 27.029888 -0.467746 3.750114 -19.449450 0.194850 3.945356 -6.616714 -4.844604 -15.614294 1.059134 -1.515605 -16.666298 -1.445259 0.312746 -0.009816 -80.084831 11.551661 -42.808037 -7.610096 2.599456 29.608765 -11.415371 14.685672 -2.937632 8.222544 -0.665459 -0.009665 74.505302 15.696121 -7.218063 48.531197 -1.681339 18.441221 15.184902 -6.681790 -1.818918 -24.648020 5.233827 -10.329251 18.847860 -1.548688 -1.875473 -9.858490 2.350534 -11.740541 14.024896 3.718420 -0.862547 33.592728 0.979430 2.732359 -25.310629 -3.425298 10.709383 
0.540095 45.684521 10.209043 -3.936784 -4.737436 -5.056483 26.647188 -0.643144 3.759967 -19.874804 0.253284 4.013719 -5.412493 -4.271474 -15.571863 1.016110 -1.478935 -16.568420 -1.728406 0.644826 -0.009870 -80.499718 12.081350 -41.104977 -7.901870 2.455581 27.838684 -11.598202 14.513453 -2.952382 8.613179 -0.606931 -0.009655 75.165230 13.323350 -7.032081 49.335281 -1.592803 17.442928 14.558301 -4.911017 -1.293924 -23.504431 4.638422 -9.837838 20.495190 -1.504358 -1.964568 -8.254070 2.260894 -11.816036 14.974197 3.201698 -0.626131 35.097321 0.910640 2.797400 -21.000868 -3.360264 10.958613 
0.614092 45.689674 11.646258 -4.441022 -4.561505 -5.173269 26.264286 -0.818528 3.779608 -20.290253 0.311707 4.082130 -4.195690 -3.707730 -15.521989 0.972967 -1.442296 -16.460531 -2.021318 0.976907 -0.009925 -80.887810 12.639455 -39.382881 -8.191672 2.320351 26.061316 -11.770786 14.341803 -2.963639 9.003814 -0.548403 -0.009645 75.816666 10.943535 -6.881489 50.137482 -1.506528 16.454273 13.957538 -3.144309 -0.791494 -22.355560 4.032922 -9.327955 22.130854 -1.445876 -2.088881 -6.675053 2.168165 -11.879623 15.945162 2.665598 -0.409657 36.610497 0.847843 2.882770 -16.705669 -3.298444 11.215989 
0.722107 45.802448 13.080313 -4.626276 -4.064915 -5.257909 25.548933 -1.277034 3.408879 -20.998938 0.818416 3.896923 -2.646951 -3.560188 -15.342864 0.989782 -1.246559 -16.312702 -2.392473 0.615642 -0.009861 -81.037048 13.458657 -36.987312 -8.781532 2.105358 23.441362 -12.203592 14.319693 -3.069997 9.560428 -0.714513 -0.009629 76.387680 7.929940 -6.170340 50.484558 -1.373103 14.857402 14.181934 -3.103311 -0.794247 -21.335205 3.212854 -8.776347 23.854971 -1.368017 -2.193063 -6.277301 2.178645 -11.888377 15.872417 1.864425 -0.391920 38.866104 0.724144 2.983502 -10.741781 -3.370913 11.509521 
0.830127 45.915234 14.514338 -4.813004 -3.568456 -5.342937 24.839514 -1.735839 3.038377 -21.721746 1.315624 3.692449 -1.102513 -3.431367 -15.155298 1.010330 -1.059897 -16.165051 -2.753862 0.264141 -0.009799 -81.155540 14.276125 -34.577217 -9.379542 1.910395 20.808901 -12.636860 14.306331 -3.180675 10.117040 -0.880622 -0.009613 76.921066 4.912560 -5.490005 50.836407 -1.245082 13.267406 14.416101 -3.062205 -0.797213 -20.326054 2.382956 -8.238231 25.567074 -1.318096 -2.291010 -5.868830 2.208073 -11.920470 15.812590 1.054223 -0.383942 41.130081 0.596575 3.098702 -4.764057 -3.437928 11.801506 
0.952223 46.099117 15.793488 -4.584633 -2.802285 -4.888896 24.157717 -2.332237 2.218536 -22.208832 1.755198 3.126523 -0.673398 -3.348379 -15.036587 1.385757 -0.947949 -16.037424 -2.871117 -0.136230 -0.009753 -80.981316 14.274191 -31.223589 -10.213665 1.664714 18.191107 -13.013810 14.533940 -3.327651 10.361158 -1.017382 -0.009605 77.499954 2.298104 -4.520418 50.511913 -1.207880 12.806486 15.094975 -3.326057 -0.906800 -19.061752 1.387044 -8.228732 25.576269 -1.322726 -2.302221 -6.490655 1.851887 -11.930203 13.725718 -0.371418 -2.896645 45.403194 0.367814 3.295557 0.859640 -2.686182 12.101255 
1.074316 46.282993 17.072615 -4.344520 -2.025142 -4.446445 23.492990 -2.928817 1.398153 -22.705406 2.185335 2.550697 -0.253701 -3.265281 -14.917898 1.764505 -0.845202 -15.919793 -2.978605 -0.526836 -0.009752 -80.798553 14.263913 -27.869774 -11.055517 1.461130 15.566351 -13.379157 14.763111 -3.468362 10.605277 -1.144375 -0.009597 78.021423 -0.320422 -3.575949 50.194630 -1.167494 12.346644 15.774712 -3.597104 -1.025924 -17.802671 0.390591 -8.270678 25.586462 -1.329030 -2.284585 -7.141678 1.505722 -11.961766 11.710818 -1.894073 -5.367062 49.674492 0.096833 3.469633 6.471681 -1.902813 12.327196 
1.167966 46.427277 18.253101 -4.337890 -1.587621 -4.152042 23.396402 -3.105052 0.938768 -22.792784 2.049286 2.189243 -0.514698 -3.075431 -14.993172 1.775571 -0.675965 -15.977725 -3.095775 -0.419395 -0.009751 -80.389793 13.218954 -23.736790 -11.947649 1.256802 13.384563 -13.687473 14.952231 -3.603745 10.419790 -0.792782 -0.009604 78.190147 -2.336296 -2.584589 49.176655 -1.238987 13.319112 16.236671 -3.147924 -0.926551 -16.402866 -0.185293 -8.275049 25.674009 -1.337610 -2.290864 -8.302629 0.996354 -12.045116 8.634618 -2.859009 -7.326736 54.597004 -0.204407 3.669354 9.891356 -4.208546 12.869473 
1.261613 46.571548 19.433582 -4.336529 -1.149733 -3.858212 23.292318 -3.281131 0.488599 -22.878422 1.903319 1.837195 -0.766428 -2.885710 -15.068624 1.789081 -0.516186 -16.045660 -3.212944 -0.311953 -0.009750 -80.054588 12.149287 -19.629078 -12.843056 1.092007 11.196679 -13.993345 15.133237 -3.729664 10.234302 -0.441188 -0.009610 78.325974 -4.366439 -1.591776 48.158615 -1.339754 14.286183 16.709167 -2.709834 -0.823739 -14.997748 -0.761673 -8.303530 25.771370 -1.337705 -2.305462 -9.503390 0.479893 -12.134249 5.601781 -3.923404 -9.228408 59.519825 -0.519001 3.800077 13.353955 -6.439486 13.595703 
1.333930 46.684052 20.559044 -4.627344 -1.158662 -4.415133 23.628426 -3.115143 0.439865 -22.763033 1.961997 1.729843 -1.084680 -3.066277 -14.973145 1.261297 -0.516312 -15.996836 -3.085978 -0.233849 -0.009751 -79.551582 10.645188 -14.829153 -13.928765 0.887819 9.034522 -13.841370 15.285583 -3.725209 10.214813 -0.187279 -0.009611 78.121170 -6.065172 -0.423282 46.703876 -1.435524 15.624044 16.950068 -3.108131 -0.957096 -13.314604 -0.731788 -7.607137 26.064102 -1.323708 -2.346835 -11.089340 -0.068781 -12.245868 3.969976 -4.029378 -9.164037 62.385349 -0.704201 3.866524 7.059846 -9.315359 12.967507 
1.406235 46.796543 21.684504 -4.917132 -1.177196 -4.971859 23.964251 -2.949150 0.391113 -22.657288 2.020665 1.631911 -1.403531 -3.246997 -14.878349 0.733426 -0.516463 -15.938245 -2.959011 -0.155746 -0.009753 -79.179245 9.108211 -10.074570 -15.031095 0.724438 6.871798 -13.678524 15.429150 -3.712582 10.195325 0.076396 -0.009624 77.886719 -7.766124 0.762158 45.240005 -1.558561 16.964499 17.192169 -3.514687 -1.097150 -11.613049 -0.711353 -6.938798 26.328897 -1.318122 -2.340033 -12.679836 -0.594399 -12.385338 2.339082 -4.123598 -9.105420 65.240623 -0.889944 3.933209 0.677303 -12.137224 12.037738 
1.409752 46.874653 22.778877 -5.160175 -1.642414 -5.637201 24.263714 -2.578089 0.302867 -22.209080 2.255151 1.436741 -1.877407 -2.900383 -14.677549 0.053498 -1.100454 -15.608518 -2.558530 0.371530 -0.009819 -78.788422 7.242196 -5.514943 -16.338440 0.553880 5.156931 -13.085032 15.513240 -3.564552 10.127030 0.457267 -0.009691 77.744698 -8.800061 1.352586 43.052341 -1.740238 19.710678 17.906567 -3.974899 -1.293598 -10.066647 -0.331906 -6.208098 26.847313 -1.288876 -2.379869 -14.444940 -0.725897 -12.453315 -0.390376 -3.575463 -7.237601 67.579063 -1.034726 3.995865 -1.727000 -12.549826 11.489682 
1.413269 46.952766 23.873238 -5.401449 -2.116089 -6.293411 24.561619 -2.216780 0.224441 -21.772451 2.479887 1.241608 -2.351292 -2.543648 -14.477801 -0.623946 -1.686444 -15.260934 -2.158052 0.889040 -0.009909 -78.550270 5.360120 -0.987721 -17.655113 0.412403 3.434702 -12.501796 15.604909 -3.422493 10.048968 0.838140 -0.009758 77.597946 -9.841208 1.951005 40.870659 -2.021452 22.444592 18.622942 -4.430715 -1.501527 -8.498096 0.029575 -5.437339 27.365450 -1.255130 -2.428186 -16.209496 -0.885932 -12.531113 -3.112410 -2.936195 -5.379280 69.946304 -1.191729 4.055537 -4.121686 -12.932632 10.957712 
